<?xml version="1.0" encoding="utf-8"?>
<!-- Generator: Adobe Illustrator 23.0.3, SVG Export Plug-In . SVG Version: 6.00 Build 0)  -->
<svg version="1.1" id="Layer_1" xmlns="http://www.w3.org/2000/svg" xmlns:xlink="http://www.w3.org/1999/xlink" x="0px" y="0px"
	 viewBox="0 0 54 54" xml:space="preserve" width="64" height="64">
<style type="text/css">
	.st0{fill:#111111;stroke:#000000;stroke-width:2.16;stroke-miterlimit:10;}
	.st1{fill:none;}
	.st2{fill:#d32f2f;}
	.st3{fill:#f44336;}
</style>
<circle class="st0" cx="27" cy="27" r="24.85"/>
<g>
	<path class="st1" d="M26.45,27.39c0.48,0,0.88-0.39,0.88-0.88c0-0.48-0.39-0.88-0.88-0.88c-0.48,0-0.88,0.39-0.88,0.88
		C25.57,26.99,25.97,27.39,26.45,27.39z"/>
	<path class="st1" d="M28.93,28.11c-0.48,0-0.88,0.39-0.88,0.88c0,0.48,0.39,0.88,0.88,0.88s0.88-0.39,0.88-0.88
		C29.8,28.5,29.41,28.11,28.93,28.11z"/>
	<path class="st2" d="M41.08,13.63L41.08,13.63c-4.93-1.57-12.59,0.05-15.66,0.81c-1.45,0.37-2.38,1.87-1.93,3.38
		c0.39,1.28,0.95,2.57,1.65,3.81l2.78-2.77C30.67,16.1,36.76,12.76,41.08,13.63z"/>
	<path class="st2" d="M42.48,18.6c0-0.15,0-0.3-0.01-0.44c0-0.02,0-0.03,0-0.05c0-0.13-0.01-0.26-0.01-0.38
		c-0.07-1.59-0.3-2.82-0.68-3.5l0,0c0.01,0.03,0.02,0.06,0.02,0.08c0.02,0.11,0.04,0.23,0.06,0.35c0.03,0.18,0.05,0.36,0.06,0.56
		c0.01,0.19,0.02,0.4,0.02,0.62c0,0,0,0,0,0c0,3.96-2.71,9.04-5.36,11.66l-2.77,2.78c1.24,0.7,2.52,1.26,3.81,1.65
		c1.51,0.46,3.01-0.47,3.38-1.93c0.47-1.87,0.83-3.77,1.08-5.59c0.03-0.2,0.05-0.4,0.08-0.6c0.04-0.3,0.07-0.6,0.1-0.89
		c0.15-1.47,0.23-2.85,0.23-4.07C42.48,18.77,42.48,18.69,42.48,18.6z"/>
	<path class="st3" d="M41.94,15.84C41.94,15.84,41.94,15.84,41.94,15.84c0-0.22-0.01-0.42-0.02-0.62c-0.01-0.19-0.03-0.38-0.06-0.56
		c-0.02-0.12-0.04-0.24-0.06-0.35c-0.01-0.03-0.01-0.06-0.02-0.08c0-0.01-0.02-0.02-0.02-0.03c-0.04-0.13-0.11-0.24-0.2-0.32
		c-0.11-0.12-0.26-0.21-0.44-0.25c-0.01,0-0.02,0-0.03-0.01c-4.32-0.87-10.41,2.47-13.15,5.23l-2.78,2.77l-4.89,4.88l0,0l-2.37,2.37
		c-0.33,0.33-0.91,0.33-1.24,0c-0.34-0.34-0.34-0.9,0-1.24l1.24-1.24c0.34-0.34,0.34-0.9,0-1.24c-0.34-0.34-0.9-0.34-1.24,0
		l-1.24,1.24c-1.02,1.02-1.02,2.69,0,3.71c1.02,1.02,2.69,1.03,3.72,0l2.37-2.37l1.24,1.24l-6.89,6.89c-0.34,0.34-0.9,0.34-1.24,0
		c-0.34-0.34-0.34-0.9,0-1.24l0.8-0.8c0.34-0.34,0.34-0.9,0-1.24c-0.34-0.34-0.9-0.34-1.24,0l-0.8,0.8c-1.02,1.02-1.02,2.69,0,3.71
		c1.02,1.02,2.69,1.02,3.72,0l6.89-6.89l0.61,0.61l0,0h0l0.63,0.63l-6.89,6.89c-1.02,1.02-1.02,2.69,0,3.72
		c1.02,1.02,2.69,1.02,3.71,0l0.8-0.8c0.34-0.34,0.34-0.9,0-1.24c-0.34-0.34-0.9-0.34-1.24,0l-0.8,0.8c-0.34,0.34-0.9,0.34-1.24,0
		c-0.34-0.34-0.34-0.9,0-1.24l6.89-6.89l1.24,1.24l-2.37,2.37c-1.03,1.03-1.03,2.69,0,3.71c1.02,1.02,2.69,1.02,3.71,0l1.24-1.24
		c0.34-0.34,0.34-0.9,0-1.24c-0.34-0.34-0.9-0.34-1.24,0l-1.24,1.24c-0.34,0.34-0.9,0.34-1.24,0c-0.34-0.34-0.34-0.89,0-1.24
		l2.37-2.37l0,0l4.88-4.89l2.77-2.78C39.22,24.88,41.94,19.8,41.94,15.84z M26.45,25.63c0.48,0,0.88,0.39,0.88,0.88
		c0,0.48-0.39,0.88-0.88,0.88c-0.48,0-0.88-0.39-0.88-0.88C25.57,26.03,25.97,25.63,26.45,25.63z M28.93,29.86
		c-0.48,0-0.88-0.39-0.88-0.88c0-0.48,0.39-0.88,0.88-0.88s0.88,0.39,0.88,0.88C29.8,29.47,29.41,29.86,28.93,29.86z"/>
</g>
</svg>
