<?xml version="1.0" encoding="utf-8"?>
<!-- Generator: Adobe Illustrator 23.0.3, SVG Export Plug-In . SVG Version: 6.00 Build 0)  -->
<svg version="1.1" id="Layer_1" xmlns="http://www.w3.org/2000/svg" xmlns:xlink="http://www.w3.org/1999/xlink" x="0px" y="0px"
	 viewBox="0 0 54 54" style="enable-background:new 0 0 54 54;" xml:space="preserve">
<style type="text/css">
	.st0{fill:#FFD54F;stroke:#FFCA28;stroke-width:2.16;stroke-miterlimit:10;}
	.st1{fill:#E65100;}
	.st2{fill:#FFA726;}
	.st3{fill:#FB8C00;}
	.st4{fill:#EF6C00;}
</style>
<circle class="st0" cx="26.88" cy="27" r="24.85"/>
<g>
	<path class="st1" d="M42.78,32.72c0.33,0,0.66-0.12,0.92-0.36c0.55-0.51,0.58-1.36,0.07-1.91c-1.42-1.53-3.34-2.63-5.5-3.2
		c1.26-0.94,2.08-2.43,2.08-4.12c0-0.19-0.01-0.38-0.03-0.56c-0.01-0.05-0.02-0.1-0.03-0.15c-0.52,0.19-1.07,0.31-1.66,0.31
		c-0.34,0-0.68-0.04-1-0.11c-0.01,0.08-0.01,0.16,0,0.24c0.01,0.09,0.01,0.18,0.01,0.27c0,1.36-1.11,2.47-2.47,2.47
		c-0.06,0-0.12,0-0.18-0.01c-0.03,0-0.06,0-0.09,0c0.96,1.17,1.56,2.56,1.68,4.07c2.09,0.33,3.93,1.26,5.21,2.64
		C42.06,32.57,42.42,32.72,42.78,32.72z"/>
	<path class="st1" d="M35.84,33.8c2.22,0.64,4.06,1.94,5.17,3.66c0.26,0.4,0.69,0.62,1.14,0.62c0.25,0,0.51-0.07,0.74-0.22
		c0.63-0.41,0.8-1.24,0.4-1.87c-1.47-2.26-3.84-3.96-6.69-4.78c-0.02-0.01-0.04-0.01-0.06-0.01c-0.13,0.9-0.45,1.74-0.9,2.52
		C35.7,33.75,35.77,33.78,35.84,33.8z"/>
	<path class="st1" d="M34.39,35.38c-0.51,0.52-1.11,0.98-1.75,1.38c0.05,0.03,0.09,0.06,0.14,0.08c2.21,0.89,4.01,2.49,4.92,4.39
		c0.23,0.48,0.72,0.77,1.22,0.77c0.2,0,0.4-0.04,0.59-0.13c0.67-0.32,0.96-1.13,0.63-1.81c-1.07-2.21-2.92-4.04-5.28-5.24
		c-0.13,0.17-0.26,0.34-0.41,0.49C34.43,35.33,34.41,35.36,34.39,35.38z"/>
	<path class="st2" d="M18.76,25.58c-0.06,0-0.12,0.01-0.18,0.01c-1.36,0-2.47-1.11-2.47-2.47c0-0.09,0-0.18,0.01-0.27
		c0.01-0.08,0.01-0.16,0-0.24c-0.32,0.07-0.66,0.11-1,0.11c-0.58,0-1.14-0.12-1.66-0.31c-0.01,0.05-0.03,0.1-0.03,0.16
		c-0.02,0.19-0.03,0.37-0.03,0.56c0,1.69,0.83,3.18,2.08,4.12c-2.16,0.57-4.08,1.67-5.5,3.2c-0.51,0.55-0.48,1.4,0.07,1.91
		c0.26,0.24,0.59,0.36,0.92,0.36c0.36,0,0.72-0.15,0.99-0.43c1.29-1.38,3.13-2.31,5.21-2.64c0.12-1.5,0.72-2.89,1.68-4.07
		C18.82,25.58,18.79,25.58,18.76,25.58z"/>
	<path class="st2" d="M17.16,31.2c-2.84,0.82-5.22,2.52-6.69,4.78c-0.41,0.63-0.23,1.46,0.4,1.87c0.23,0.15,0.48,0.22,0.74,0.22
		c0.44,0,0.88-0.22,1.14-0.62c1.11-1.72,2.95-3.02,5.17-3.66c0.07-0.02,0.14-0.05,0.21-0.09c-0.45-0.78-0.77-1.63-0.9-2.52
		C17.2,31.2,17.18,31.2,17.16,31.2z"/>
	<path class="st2" d="M19.3,35.3c-0.15-0.16-0.27-0.33-0.41-0.49c-2.36,1.2-4.21,3.03-5.28,5.24c-0.32,0.67-0.04,1.48,0.63,1.81
		c0.19,0.09,0.39,0.13,0.59,0.13c0.5,0,0.99-0.28,1.22-0.77c0.91-1.9,2.71-3.5,4.92-4.39c0.05-0.02,0.1-0.05,0.14-0.08
		c-0.65-0.4-1.24-0.86-1.75-1.38C19.34,35.36,19.32,35.33,19.3,35.3z"/>
	<path class="st3" d="M16.12,22.6c2.14-0.46,3.75-2.36,3.75-4.64c0-0.36-0.04-0.7-0.12-1.04h-3.6v-3.6
		c-0.33-0.07-0.68-0.12-1.04-0.12c-2.62,0-4.75,2.13-4.75,4.75c0,2.04,1.29,3.76,3.1,4.44c0.52,0.19,1.07,0.31,1.66,0.31
		C15.46,22.72,15.8,22.67,16.12,22.6z"/>
	<path class="st4" d="M26.88,22.04v16.31v0c2.16,0,4.15-0.6,5.76-1.59c0.65-0.4,1.24-0.86,1.75-1.38c0.02-0.02,0.04-0.05,0.07-0.08
		c0.15-0.16,0.27-0.33,0.41-0.49c0.13-0.16,0.27-0.31,0.39-0.48c0.14-0.2,0.25-0.41,0.38-0.62c0.45-0.78,0.77-1.63,0.9-2.52
		c0.05-0.33,0.08-0.66,0.08-1c0-0.18-0.02-0.36-0.03-0.55c-0.12-1.5-0.72-2.89-1.68-4.07C33.15,23.44,30.21,22.04,26.88,22.04z"/>
	<polygon class="st4" points="26.88,22.04 26.88,22.04 26.88,22.04 	"/>
	<polygon class="st4" points="26.88,38.35 26.88,38.35 26.88,38.35 	"/>
	<path class="st3" d="M26.88,22.04L26.88,22.04L26.88,22.04C26.88,22.04,26.88,22.04,26.88,22.04c-3.33,0-6.27,1.4-8.03,3.54
		c-0.96,1.17-1.56,2.56-1.68,4.07c-0.01,0.18-0.03,0.36-0.03,0.55c0,0.34,0.03,0.67,0.08,1c0.13,0.9,0.45,1.74,0.9,2.52
		c0.12,0.21,0.23,0.42,0.37,0.62c0.12,0.17,0.26,0.32,0.39,0.48c0.13,0.17,0.26,0.34,0.41,0.49c0.02,0.02,0.04,0.05,0.07,0.08
		c0.51,0.52,1.11,0.98,1.75,1.38c1.61,1,3.6,1.59,5.76,1.59c0,0,0,0,0,0h0l0,0v0V22.04z"/>
	<path class="st4" d="M40.29,22.4c1.8-0.67,3.1-2.4,3.1-4.44c0-2.62-2.13-4.75-4.75-4.75c-0.36,0-0.7,0.04-1.04,0.12v3.6H34
		c-0.07,0.33-0.12,0.68-0.12,1.04c0,2.28,1.61,4.18,3.75,4.64c0.32,0.07,0.66,0.11,1,0.11C39.22,22.72,39.77,22.6,40.29,22.4z"/>
</g>
</svg>
