<?xml version="1.0" encoding="utf-8"?>
<!-- Generator: Adobe Illustrator 23.0.3, SVG Export Plug-In . SVG Version: 6.00 Build 0)  -->
<svg version="1.1" id="Layer_1" xmlns="http://www.w3.org/2000/svg" xmlns:xlink="http://www.w3.org/1999/xlink" x="0px" y="0px"
	 viewBox="0 0 54 54" xml:space="preserve" width="64" height="64">
<style type="text/css">
	.st0{fill:#FFFFFF;stroke:#EEEEEE;stroke-width:2.16;stroke-miterlimit:10;box-shadow:}
	.st1{fill:none;}
	.st2{fill:#269DC6;}
	.st3{fill:#80deea;}
	.st4{fill:#b2ebf2;}
</style>
<circle class="st0" cx="27" cy="27" r="24.85"/>
<g>
	<path class="st1" d="M37.1,25.75c0.09,0,0.17,0.03,0.26,0.05C37.28,25.77,37.19,25.75,37.1,25.75z"/>
	<path class="st1" d="M36.85,25.8c0.08-0.03,0.17-0.05,0.26-0.05C37.02,25.75,36.93,25.77,36.85,25.8z"/>
	<polygon class="st2" points="23.47,38.92 23.47,38.92 23.47,38.92 	"/>
	<path class="st3" d="M44.54,23.71H14.83c1.79-2.51,1.56-6.02-0.7-8.27c-2.25,2.25-2.48,5.76-0.69,8.27c0,0.08,0.01,0.16,0.01,0.24
		c-2.52-1.9-6.12-1.71-8.42,0.59c2.31,2.31,5.95,2.49,8.47,0.55c0.27,3.23,1.46,6.2,3.31,8.64C15.7,34.89,15,36.46,15,38.2
		c1.71,0,3.27-0.67,4.42-1.76c0,0,0,0,0.01,0.01c0,0,0,0,0,0c0,0,0,0-0.01-0.01c0.67-0.63,1.21-1.41,1.56-2.28l0.48-0.24
		c7.59-3.89,16-5.92,24.53-5.91c0.19-0.7,0.33-1.42,0.43-2.16C46.55,24.71,45.67,23.71,44.54,23.71z M37.1,27.5
		c-0.48,0-0.88-0.39-0.88-0.88c0-0.39,0.26-0.71,0.62-0.82c0.08-0.03,0.17-0.05,0.26-0.05c0.09,0,0.18,0.02,0.26,0.05
		c0.36,0.11,0.62,0.43,0.62,0.82C37.98,27.11,37.59,27.5,37.1,27.5z"/>
	<path class="st4" d="M20.98,34.16c-0.35,0.87-0.89,1.65-1.56,2.28c1.21,1,2.57,1.84,4.04,2.48c0,0,0,0,0.01,0c0,0,0,0,0,0
		c0,0,0,0,0,0c2.26,0.99,4.39,1.34,6.52,1.34c0,0,0,0,0,0h0c7.66,0,14.1-5.2,15.99-12.26c0,0,0,0,0,0c-8.53,0-16.94,2.03-24.53,5.91
		L20.98,34.16z"/>
</g>
</svg>
